<svg xmlns:xlink="http://www.w3.org/1999/xlink" xmlns="http://www.w3.org/2000/svg" aria-hidden="true" focusable="false" class="icon body-type--hecto" width="24"  height="24" ><defs><symbol id="icon--instagram" viewBox="0 0 24 24">
<path d="M12 5.8c-3.4 0-6.2 2.8-6.2 6.2s2.8 6.2 6.2 6.2 6.2-2.8 6.2-6.2-2.8-6.2-6.2-6.2zM12 16c-2.2 0-4-1.8-4-4s1.8-4 4-4 4 1.8 4 4-1.8 4-4 4zM18.7 4.8c-.8 0-1.4.6-1.4 1.4s.6 1.4 1.4 1.4 1.4-.6 1.4-1.4-.6-1.4-1.4-1.4z"></path><path d="M22.1 2c-1.3-1.3-3-2-5.1-2H7C2.8 0 0 2.8 0 7v9.9c0 2.1.7 3.9 2 5.2S5 24 7 24h9.9c2.1 0 3.8-.7 5.1-1.9 1.3-1.3 2-3 2-5.1V7c0-2-.7-3.8-1.9-5zm-.2 15c-.1 1.5-.5 2.7-1.4 3.5s-2.1 1.3-3.5 1.3H7.1c-1.5 0-2.7-.4-3.5-1.3-.9-.9-1.3-2.1-1.3-3.6V7c0-1.5.4-2.7 1.3-3.5.8-.8 2.1-1.3 3.5-1.3h10c1.5 0 2.7.4 3.5 1.3s1.3 2.1 1.3 3.5v10z"></path>
</symbol></defs><use xlink:href="#icon--instagram" fill="#1D1C1C"></use></svg>