<svg xmlns:xlink="http://www.w3.org/1999/xlink" xmlns="http://www.w3.org/2000/svg" aria-hidden="true" focusable="false" class="icon body-type--hecto" width="24"  height="24" ><defs><symbol id="icon--twitter" viewBox="0 0 24 24">
<path d="M24 4.1c-.9.4-1.8.7-2.8.9 1-.7 1.8-1.7 2.1-2.9-.9.6-2 1-3.1 1.3a4.6 4.6 0 00-3.6-1.7c-2.7 0-4.9 2.3-4.9 5.2 0 .4.1.8.1 1.2-4.1-.3-7.7-2.4-10.2-5.6-.3.8-.6 1.7-.6 2.7 0 1.8.9 3.4 2.3 4.4-.9 0-1.6-.3-2.3-.7V9c0 2.6 1.7 4.6 3.9 5.1-.4.1-.9.2-1.3.2-.3 0-.6 0-.9-.1.7 2.1 2.5 3.6 4.6 3.7-1.7 1.4-3.8 2.2-6.1 2.2-.4 0-.8 0-1.2-.1 2.1 1.5 4.8 2.4 7.5 2.4 9.1 0 14-8 14-14.9v-.7c1-.8 1.8-1.7 2.5-2.7z"></path>
</symbol></defs><use xlink:href="#icon--twitter" fill="#1D1C1C"></use></svg>