<svg xmlns:xlink="http://www.w3.org/1999/xlink" xmlns="http://www.w3.org/2000/svg" aria-hidden="true" focusable="false" class="icon body-type--hecto" width="24"  height="24" ><defs><symbol id="icon--youtube" viewBox="0 0 24 24">
<path d="M19.7 9.3H4.4C2 9.3 0 11.5 0 14.2v3.9C0 20.8 2 23 4.4 23h15.3c2.4 0 4.4-2.2 4.4-4.9v-3.9c0-2.7-2-4.9-4.4-4.9zm-12.1 3H6.2v7.9H4.8v-7.9H3.4V11h4.2v1.3zm4 7.9h-1.2v-.7c-.3.3-.4.4-.7.6-.3.2-.4.2-.7.2-.3 0-.5-.1-.6-.3-.2-.2-.2-.5-.2-.9v-5.7h1.2v5.2c0 .2 0 .3.1.4s.2.1.3.1.2-.1.4-.2.3-.2.4-.4v-5.2h1.2v6.9zm4.2-.3c-.2.3-.4.4-.8.4-.3 0-.4-.1-.6-.2s-.4-.3-.5-.4v.5h-1.2V11h1.2v2.9c.2-.2.4-.4.5-.4.2-.1.4-.2.5-.2.4 0 .7.2.9.4.2.3.3.7.3 1.2v3.7c0 .6-.1 1.1-.3 1.3zm4.5-3H18v1.2c0 .4 0 .6.1.7.1.2.2.2.4.2s.4-.1.4-.2.1-.4.1-.8v-.3h1.2v.4c0 .7-.2 1.2-.4 1.6-.3.4-.8.5-1.3.5s-1-.2-1.2-.5c-.3-.4-.4-.9-.4-1.5v-3c0-.6.2-1.1.5-1.4.4-.4.8-.5 1.3-.5s1 .2 1.2.5c.3.4.4.8.4 1.5v1.6z"></path><path d="M18.4 15.9c-.1 0-.2 0-.3.1-.1 0-.1.1-.1.3v.4h.7v-.4c0-.2 0-.3-.1-.4h-.2zM15 15.9c-.1 0-.1 0-.2.1-.1 0-.1.1-.2.2v2.9c.1.1.1.2.2.2s.1.1.2.1.2 0 .2-.1.1-.2.1-.4v-2.5c0-.2 0-.3-.1-.4 0-.1-.1-.1-.2-.1zM6.8 7.2h1.3V4.3l1.6-4H8.4l-.9 2.8h-.1L6.5.3H5.2l1.6 4.2zM12.5 7.2c.5 0 1-.2 1.3-.4.3-.4.4-.8.4-1.3V2c0-.5-.2-.9-.5-1.2-.3-.3-.7-.4-1.2-.4s-1.1.2-1.3.4c-.4.2-.6.7-.6 1.2v3.4c0 .5.2 1 .5 1.3.4.3.9.5 1.4.5zM12 1.9c0-.2.1-.3.2-.4s.2-.1.4-.1.3 0 .4.1c.1.1.2.2.2.4v3.6c0 .2-.1.4-.2.4-.1.1-.3.2-.4.2-.2 0-.3-.1-.4-.2-.2 0-.2-.2-.2-.4V1.9zM17 7.2c.3 0 .4-.1.7-.2.3-.2.5-.4.7-.6v.7h1.2V.3h-1.2v5.2c-.1.2-.3.3-.4.4-.1.1-.2.1-.2.1-.1 0-.2 0-.3-.1-.1-.1-.1-.2-.1-.4V.3h-1.2V6c0 .4.1.7.3.9 0 .2.2.3.5.3z"></path>
</symbol></defs><use xlink:href="#icon--youtube" fill="#1D1C1C"></use></svg>