<svg xmlns:xlink="http://www.w3.org/1999/xlink" xmlns="http://www.w3.org/2000/svg" aria-hidden="true" focusable="false" class="icon body-type--deka icon--set-left" width="24"  height="24" ><defs><symbol id="icon--contact" viewBox="0 0 24 24">
<path d="M21.5 10h-.6v-.5c0-4.9-4-8.9-8.9-8.9s-8.9 4-8.9 8.9v.6h-.6C1.2 10 0 11.2 0 12.5v3.7c0 1.3 1.1 2.5 2.5 2.5h2.4c.2 0 .5-.2.5-.5v-7.7c0-.2-.2-.5-.5-.5H4v-.5c0-4.3 3.6-7.9 8-7.9s8 3.6 8 7.9v.6h-.8c-.2 0-.5.2-.5.5v7.7c0 .2.2.5.5.5h1.6c-.2 1.4-1.4 2.4-2.9 2.4h-3.5c-.2-1-1.2-1.6-2.2-1.3-.5.1-.8.4-1.2.7-.1.5-.2 1-.1 1.4.2.8 1 1.4 1.8 1.4h.4c.7-.1 1.2-.6 1.4-1.3h3.2c1.9 0 3.6-1.4 3.8-3.4 1.3-.1 2.4-1.1 2.4-2.5v-3.7c.1-1.3-1.1-2.5-2.4-2.5zm-17.1.9v6.8H2.5c-.8.1-1.5-.7-1.5-1.5v-3.7c0-.8.7-1.6 1.6-1.6h1.8zm8.2 11.5c-.5 0-.8-.4-.8-.8 0-.5.4-.8.8-.8s.8.4.8.8c.2.5-.3.8-.8.8zM23 16.2c0 .8-.7 1.6-1.6 1.6h-1.9V11h1.9c.8 0 1.6.7 1.6 1.6v3.6z"></path>
</symbol></defs><use xlink:href="#icon--contact" fill="#FFFFFF"></use></svg>